# xmcd
#
# Track frame offsets: 
#        150
#        12531
#        27916
#        40472
#        48998
#        66491
#        75817
#        91265
#        105138
#        115839
#        129274
#        145386
#        158554
#        173705
#        185830
#        204400
#        213974
#
# Disc length: 3007 seconds
#
# Revision: 2
# Processed by: cddbd v1.5.2PL0 Copyright (c) Steve Scherf et al.
# Submitted via: ExactAudioCopy v0.99pb3
#
DISCID=dc0bbd11
DTITLE=Thom Bresh - Down and Not Too Dirty
DYEAR=2002
DGENRE=
TTITLE0=I'm The Man, She's The Boss
TTITLE1=Grand Opening
TTITLE2=Job Like That
TTITLE3=Brown Eyed Women
TTITLE4=I'm a Good Old Boy
TTITLE5=Take Another Swing At Me
TTITLE6=The Man My Dog Thinks I Am
TTITLE7=S.O.B.
TTITLE8=Bit Him On The Ear
TTITLE9=Standard Oil
TTITLE10=Hillbilly Hell
TTITLE11=Mr. Guitar, My Friend
TTITLE12=White Trash Xmas
TTITLE13=Underpants
TTITLE14=County Questions
TTITLE15=Kelso's Gas Station
TTITLE16=N.A.G.O.B.
EXTD=Legend Records LR-110
EXTT0=
EXTT1=
EXTT2=
EXTT3=
EXTT4=
EXTT5=
EXTT6=
EXTT7=
EXTT8=
EXTT9=
EXTT10=
EXTT11=
EXTT12=
EXTT13=
EXTT14=
EXTT15=
EXTT16=
PLAYORDER=
